<?xml version="1.0" encoding="UTF-8" standalone="no"?>
<!DOCTYPE svg PUBLIC "-//W3C//DTD SVG 1.1//EN"
 "http://www.w3.org/Graphics/SVG/1.1/DTD/svg11.dtd">
<!-- Generated by graphviz version 14.1.4 (20260321.0153)
 -->
<!-- Title: ASIA Pages: 1 -->
<svg width="309pt" height="329pt"
 viewBox="0.00 0.00 309.00 329.00" xmlns="http://www.w3.org/2000/svg" xmlns:xlink="http://www.w3.org/1999/xlink">
<g id="graph0" class="graph" transform="scale(1 1) rotate(0) translate(4 324.5)">
<title>ASIA</title>
<polygon fill="white" stroke="none" points="-4,4 -4,-324.5 305,-324.5 305,4 -4,4"/>
<text xml:space="preserve" text-anchor="middle" x="150.5" y="-303.2" font-family="Helvetica,sans-Serif" font-size="14.00">ASIA Network (Lauritzen &amp; Spiegelhalter, 1988)</text>
<!-- Asia -->
<g id="node1" class="node">
<title>Asia</title>
<ellipse fill="#6495ed" stroke="black" cx="67.59" cy="-273.82" rx="36.24" ry="23.69"/>
<text xml:space="preserve" text-anchor="middle" x="67.59" y="-275.17" font-family="Helvetica,sans-Serif" font-size="12.00" fill="white">Visit to</text>
<text xml:space="preserve" text-anchor="middle" x="67.59" y="-262.42" font-family="Helvetica,sans-Serif" font-size="12.00" fill="white">Asia</text>
</g>
<!-- Tuberculosis -->
<g id="node3" class="node">
<title>Tuberculosis</title>
<ellipse fill="#fa8072" stroke="black" cx="67.59" cy="-190.44" rx="51.55" ry="18"/>
<text xml:space="preserve" text-anchor="middle" x="67.59" y="-185.42" font-family="Helvetica,sans-Serif" font-size="12.00">Tuberculosis</text>
</g>
<!-- Asia&#45;&gt;Tuberculosis -->
<g id="edge1" class="edge">
<title>Asia&#45;&gt;Tuberculosis</title>
<path fill="none" stroke="black" d="M67.59,-249.72C67.59,-240.6 67.59,-230.02 67.59,-220.4"/>
<polygon fill="black" stroke="black" points="71.09,-220.42 67.59,-210.42 64.09,-220.42 71.09,-220.42"/>
</g>
<!-- Smoker -->
<g id="node2" class="node">
<title>Smoker</title>
<ellipse fill="#6495ed" stroke="black" cx="208.59" cy="-273.82" rx="35.03" ry="18"/>
<text xml:space="preserve" text-anchor="middle" x="208.59" y="-268.79" font-family="Helvetica,sans-Serif" font-size="12.00" fill="white">Smoker</text>
</g>
<!-- LungCancer -->
<g id="node4" class="node">
<title>LungCancer</title>
<ellipse fill="#fa8072" stroke="black" cx="175.59" cy="-190.44" rx="38.89" ry="23.69"/>
<text xml:space="preserve" text-anchor="middle" x="175.59" y="-191.79" font-family="Helvetica,sans-Serif" font-size="12.00">Lung</text>
<text xml:space="preserve" text-anchor="middle" x="175.59" y="-179.04" font-family="Helvetica,sans-Serif" font-size="12.00">Cancer</text>
</g>
<!-- Smoker&#45;&gt;LungCancer -->
<g id="edge2" class="edge">
<title>Smoker&#45;&gt;LungCancer</title>
<path fill="none" stroke="black" d="M201.75,-255.96C198.04,-246.81 193.33,-235.18 188.92,-224.32"/>
<polygon fill="black" stroke="black" points="192.24,-223.19 185.24,-215.24 185.76,-225.82 192.24,-223.19"/>
</g>
<!-- Bronchitis -->
<g id="node5" class="node">
<title>Bronchitis</title>
<ellipse fill="#fa8072" stroke="black" cx="242.59" cy="-107.06" rx="42.37" ry="18"/>
<text xml:space="preserve" text-anchor="middle" x="242.59" y="-102.04" font-family="Helvetica,sans-Serif" font-size="12.00">Bronchitis</text>
</g>
<!-- Smoker&#45;&gt;Bronchitis -->
<g id="edge3" class="edge">
<title>Smoker&#45;&gt;Bronchitis</title>
<path fill="none" stroke="black" d="M213.32,-255.69C216.45,-244.03 220.53,-228.21 223.59,-214.13 229.25,-188.03 234.51,-158.05 238.05,-136.64"/>
<polygon fill="black" stroke="black" points="241.48,-137.34 239.64,-126.9 234.57,-136.21 241.48,-137.34"/>
</g>
<!-- TbOrCancer -->
<g id="node6" class="node">
<title>TbOrCancer</title>
<ellipse fill="#fffacd" stroke="black" cx="143.59" cy="-107.06" rx="38.89" ry="23.69"/>
<text xml:space="preserve" text-anchor="middle" x="143.59" y="-108.41" font-family="Helvetica,sans-Serif" font-size="12.00">TB or</text>
<text xml:space="preserve" text-anchor="middle" x="143.59" y="-95.66" font-family="Helvetica,sans-Serif" font-size="12.00">Cancer</text>
</g>
<!-- Tuberculosis&#45;&gt;TbOrCancer -->
<g id="edge4" class="edge">
<title>Tuberculosis&#45;&gt;TbOrCancer</title>
<path fill="none" stroke="black" d="M82.97,-172.97C92.77,-162.48 105.72,-148.62 117.13,-136.39"/>
<polygon fill="black" stroke="black" points="119.43,-139.06 123.7,-129.36 114.32,-134.28 119.43,-139.06"/>
</g>
<!-- LungCancer&#45;&gt;TbOrCancer -->
<g id="edge5" class="edge">
<title>LungCancer&#45;&gt;TbOrCancer</title>
<path fill="none" stroke="black" d="M166.84,-167.2C163.7,-159.2 160.07,-149.98 156.64,-141.24"/>
<polygon fill="black" stroke="black" points="159.9,-139.99 152.99,-131.97 153.39,-142.55 159.9,-139.99"/>
</g>
<!-- Dyspnoea -->
<g id="node8" class="node">
<title>Dyspnoea</title>
<ellipse fill="#3cb371" stroke="black" cx="241.59" cy="-23.69" rx="43.29" ry="18"/>
<text xml:space="preserve" text-anchor="middle" x="241.59" y="-18.66" font-family="Helvetica,sans-Serif" font-size="12.00" fill="white">Dyspnoea</text>
</g>
<!-- Bronchitis&#45;&gt;Dyspnoea -->
<g id="edge8" class="edge">
<title>Bronchitis&#45;&gt;Dyspnoea</title>
<path fill="none" stroke="black" d="M242.38,-88.81C242.25,-78.45 242.08,-65.02 241.94,-53.13"/>
<polygon fill="black" stroke="black" points="245.44,-53.39 241.82,-43.43 238.44,-53.48 245.44,-53.39"/>
</g>
<!-- XRay -->
<g id="node7" class="node">
<title>XRay</title>
<ellipse fill="#3cb371" stroke="black" cx="143.59" cy="-23.69" rx="35.71" ry="23.69"/>
<text xml:space="preserve" text-anchor="middle" x="143.59" y="-25.04" font-family="Helvetica,sans-Serif" font-size="12.00" fill="white">X&#45;Ray</text>
<text xml:space="preserve" text-anchor="middle" x="143.59" y="-12.29" font-family="Helvetica,sans-Serif" font-size="12.00" fill="white">Result</text>
</g>
<!-- TbOrCancer&#45;&gt;XRay -->
<g id="edge6" class="edge">
<title>TbOrCancer&#45;&gt;XRay</title>
<path fill="none" stroke="black" d="M143.59,-82.96C143.59,-75.58 143.59,-67.23 143.59,-59.21"/>
<polygon fill="black" stroke="black" points="147.09,-59.36 143.59,-49.36 140.09,-59.36 147.09,-59.36"/>
</g>
<!-- TbOrCancer&#45;&gt;Dyspnoea -->
<g id="edge7" class="edge">
<title>TbOrCancer&#45;&gt;Dyspnoea</title>
<path fill="none" stroke="black" d="M165.83,-87.6C180.18,-75.68 198.95,-60.1 214.21,-47.42"/>
<polygon fill="black" stroke="black" points="216.12,-50.39 221.57,-41.31 211.64,-45 216.12,-50.39"/>
</g>
</g>
</svg>
