<?xml version="1.0" encoding="UTF-8" standalone="no"?>
<!DOCTYPE svg PUBLIC "-//W3C//DTD SVG 1.1//EN"
 "http://www.w3.org/Graphics/SVG/1.1/DTD/svg11.dtd">
<!-- Generated by graphviz version 14.1.4 (20260321.0153)
 -->
<!-- Title: CHILD Pages: 1 -->
<svg width="552pt" height="394pt"
 viewBox="0.00 0.00 552.00 394.00" xmlns="http://www.w3.org/2000/svg" xmlns:xlink="http://www.w3.org/1999/xlink">
<g id="graph0" class="graph" transform="scale(1 1) rotate(0) translate(4 390.03)">
<title>CHILD</title>
<polygon fill="white" stroke="none" points="-4,4 -4,-390.03 548.36,-390.03 548.36,4 -4,4"/>
<text xml:space="preserve" text-anchor="middle" x="272.18" y="-370.63" font-family="Helvetica,sans-Serif" font-size="12.00">CHILD Network (Spiegelhalter &amp; Cowell, 1992)</text>
<text xml:space="preserve" text-anchor="middle" x="272.18" y="-357.88" font-family="Helvetica,sans-Serif" font-size="12.00">20 nodes — congenital heart disease diagnosis</text>
<!-- BirthAsphyxia -->
<g id="node1" class="node">
<title>BirthAsphyxia</title>
<ellipse fill="#6495ed" stroke="black" cx="293.36" cy="-330.97" rx="39.95" ry="21.57"/>
<text xml:space="preserve" text-anchor="middle" x="293.36" y="-332.72" font-family="Helvetica,sans-Serif" font-size="10.00" fill="white">Birth</text>
<text xml:space="preserve" text-anchor="middle" x="293.36" y="-321.47" font-family="Helvetica,sans-Serif" font-size="10.00" fill="white">Asphyxia</text>
</g>
<!-- Disease -->
<g id="node2" class="node">
<title>Disease</title>
<ellipse fill="#fa8072" stroke="black" cx="293.36" cy="-255.4" rx="36.86" ry="18"/>
<text xml:space="preserve" text-anchor="middle" x="293.36" y="-250.38" font-family="Helvetica,sans-Serif" font-size="12.00">Disease</text>
</g>
<!-- BirthAsphyxia&#45;&gt;Disease -->
<g id="edge1" class="edge">
<title>BirthAsphyxia&#45;&gt;Disease</title>
<path fill="none" stroke="black" d="M293.36,-309.08C293.36,-301.64 293.36,-293.11 293.36,-285.12"/>
<polygon fill="black" stroke="black" points="296.86,-285.13 293.36,-275.13 289.86,-285.13 296.86,-285.13"/>
</g>
<!-- DuctFlow -->
<g id="node3" class="node">
<title>DuctFlow</title>
<ellipse fill="#b0c4de" stroke="black" cx="40.36" cy="-179.83" rx="27" ry="21.57"/>
<text xml:space="preserve" text-anchor="middle" x="40.36" y="-181.58" font-family="Helvetica,sans-Serif" font-size="10.00">Duct</text>
<text xml:space="preserve" text-anchor="middle" x="40.36" y="-170.33" font-family="Helvetica,sans-Serif" font-size="10.00">Flow</text>
</g>
<!-- Disease&#45;&gt;DuctFlow -->
<g id="edge2" class="edge">
<title>Disease&#45;&gt;DuctFlow</title>
<path fill="none" stroke="black" d="M258.82,-248.86C215.44,-241.25 139.18,-225.66 77.36,-201.4 75.44,-200.65 73.5,-199.81 71.56,-198.92"/>
<polygon fill="black" stroke="black" points="73.27,-195.86 62.76,-194.48 70.11,-202.11 73.27,-195.86"/>
</g>
<!-- CardiacMixing -->
<g id="node4" class="node">
<title>CardiacMixing</title>
<ellipse fill="#b0c4de" stroke="black" cx="121.36" cy="-179.83" rx="35.18" ry="21.57"/>
<text xml:space="preserve" text-anchor="middle" x="121.36" y="-181.58" font-family="Helvetica,sans-Serif" font-size="10.00">Cardiac</text>
<text xml:space="preserve" text-anchor="middle" x="121.36" y="-170.33" font-family="Helvetica,sans-Serif" font-size="10.00">Mixing</text>
</g>
<!-- Disease&#45;&gt;CardiacMixing -->
<g id="edge3" class="edge">
<title>Disease&#45;&gt;CardiacMixing</title>
<path fill="none" stroke="black" d="M265.49,-243.28C239.46,-232.79 199.59,-216.48 165.36,-201.4 163.33,-200.51 161.26,-199.58 159.17,-198.64"/>
<polygon fill="black" stroke="black" points="160.66,-195.47 150.11,-194.49 157.75,-201.84 160.66,-195.47"/>
</g>
<!-- LungParench -->
<g id="node5" class="node">
<title>LungParench</title>
<ellipse fill="#b0c4de" stroke="black" cx="211.36" cy="-179.83" rx="36.77" ry="21.57"/>
<text xml:space="preserve" text-anchor="middle" x="211.36" y="-181.58" font-family="Helvetica,sans-Serif" font-size="10.00">Lung</text>
<text xml:space="preserve" text-anchor="middle" x="211.36" y="-170.33" font-family="Helvetica,sans-Serif" font-size="10.00">Parench</text>
</g>
<!-- Disease&#45;&gt;LungParench -->
<g id="edge4" class="edge">
<title>Disease&#45;&gt;LungParench</title>
<path fill="none" stroke="black" d="M276.37,-239.16C265.73,-229.61 251.75,-217.07 239.48,-206.06"/>
<polygon fill="black" stroke="black" points="241.83,-203.47 232.05,-199.39 237.15,-208.68 241.83,-203.47"/>
</g>
<!-- LungFlow -->
<g id="node6" class="node">
<title>LungFlow</title>
<ellipse fill="#b0c4de" stroke="black" cx="293.36" cy="-179.83" rx="27" ry="21.57"/>
<text xml:space="preserve" text-anchor="middle" x="293.36" y="-181.58" font-family="Helvetica,sans-Serif" font-size="10.00">Lung</text>
<text xml:space="preserve" text-anchor="middle" x="293.36" y="-170.33" font-family="Helvetica,sans-Serif" font-size="10.00">Flow</text>
</g>
<!-- Disease&#45;&gt;LungFlow -->
<g id="edge5" class="edge">
<title>Disease&#45;&gt;LungFlow</title>
<path fill="none" stroke="black" d="M293.36,-236.97C293.36,-229.8 293.36,-221.27 293.36,-213.05"/>
<polygon fill="black" stroke="black" points="296.86,-213.32 293.36,-203.32 289.86,-213.32 296.86,-213.32"/>
</g>
<!-- Sick -->
<g id="node7" class="node">
<title>Sick</title>
<ellipse fill="#b0c4de" stroke="black" cx="365.36" cy="-179.83" rx="27" ry="18"/>
<text xml:space="preserve" text-anchor="middle" x="365.36" y="-175.96" font-family="Helvetica,sans-Serif" font-size="10.00">Sick</text>
</g>
<!-- Disease&#45;&gt;Sick -->
<g id="edge6" class="edge">
<title>Disease&#45;&gt;Sick</title>
<path fill="none" stroke="black" d="M308.63,-238.8C318.73,-228.48 332.13,-214.79 343.37,-203.31"/>
<polygon fill="black" stroke="black" points="345.54,-206.09 350.03,-196.49 340.54,-201.19 345.54,-206.09"/>
</g>
<!-- LVH -->
<g id="node10" class="node">
<title>LVH</title>
<ellipse fill="#b0c4de" stroke="black" cx="497.36" cy="-179.83" rx="27" ry="18"/>
<text xml:space="preserve" text-anchor="middle" x="497.36" y="-175.96" font-family="Helvetica,sans-Serif" font-size="10.00">LVH</text>
</g>
<!-- Disease&#45;&gt;LVH -->
<g id="edge7" class="edge">
<title>Disease&#45;&gt;LVH</title>
<path fill="none" stroke="black" d="M322.59,-244.01C352.46,-233.38 400.18,-216.34 441.36,-201.4 448.47,-198.82 456.09,-196.04 463.33,-193.38"/>
<polygon fill="black" stroke="black" points="464.34,-196.74 472.52,-190 461.93,-190.17 464.34,-196.74"/>
</g>
<!-- Age -->
<g id="node20" class="node">
<title>Age</title>
<ellipse fill="#3cb371" stroke="black" cx="435.36" cy="-100.7" rx="27" ry="18"/>
<text xml:space="preserve" text-anchor="middle" x="435.36" y="-96.83" font-family="Helvetica,sans-Serif" font-size="10.00" fill="white">Age</text>
</g>
<!-- Disease&#45;&gt;Age -->
<g id="edge23" class="edge">
<title>Disease&#45;&gt;Age</title>
<path fill="none" stroke="black" d="M325.38,-245.97C349.36,-238.12 381.35,-224.14 401.36,-201.4 419,-181.36 427.57,-151.76 431.69,-130.02"/>
<polygon fill="black" stroke="black" points="435.11,-130.79 433.3,-120.35 428.2,-129.64 435.11,-130.79"/>
</g>
<!-- HypDistrib -->
<g id="node8" class="node">
<title>HypDistrib</title>
<ellipse fill="#b0c4de" stroke="black" cx="37.36" cy="-100.7" rx="31.47" ry="21.57"/>
<text xml:space="preserve" text-anchor="middle" x="37.36" y="-102.45" font-family="Helvetica,sans-Serif" font-size="10.00">Hyp</text>
<text xml:space="preserve" text-anchor="middle" x="37.36" y="-91.2" font-family="Helvetica,sans-Serif" font-size="10.00">Distrib</text>
</g>
<!-- DuctFlow&#45;&gt;HypDistrib -->
<g id="edge8" class="edge">
<title>DuctFlow&#45;&gt;HypDistrib</title>
<path fill="none" stroke="black" d="M39.56,-158.16C39.27,-150.79 38.94,-142.29 38.62,-134.16"/>
<polygon fill="black" stroke="black" points="42.12,-134.06 38.24,-124.21 35.13,-134.34 42.12,-134.06"/>
</g>
<!-- CardiacMixing&#45;&gt;HypDistrib -->
<g id="edge9" class="edge">
<title>CardiacMixing&#45;&gt;HypDistrib</title>
<path fill="none" stroke="black" d="M102.3,-161.33C90.97,-150.93 76.44,-137.58 63.99,-126.15"/>
<polygon fill="black" stroke="black" points="66.62,-123.81 56.88,-119.63 61.88,-128.97 66.62,-123.81"/>
</g>
<!-- HypoxiaInO2 -->
<g id="node9" class="node">
<title>HypoxiaInO2</title>
<ellipse fill="#b0c4de" stroke="black" cx="123.36" cy="-100.7" rx="36.77" ry="21.57"/>
<text xml:space="preserve" text-anchor="middle" x="123.36" y="-102.45" font-family="Helvetica,sans-Serif" font-size="10.00">Hypoxia</text>
<text xml:space="preserve" text-anchor="middle" x="123.36" y="-91.2" font-family="Helvetica,sans-Serif" font-size="10.00">in O2</text>
</g>
<!-- CardiacMixing&#45;&gt;HypoxiaInO2 -->
<g id="edge10" class="edge">
<title>CardiacMixing&#45;&gt;HypoxiaInO2</title>
<path fill="none" stroke="black" d="M121.9,-158.16C122.09,-150.79 122.31,-142.29 122.52,-134.16"/>
<polygon fill="black" stroke="black" points="126.02,-134.3 122.78,-124.21 119.02,-134.12 126.02,-134.3"/>
</g>
<!-- LungParench&#45;&gt;HypoxiaInO2 -->
<g id="edge11" class="edge">
<title>LungParench&#45;&gt;HypoxiaInO2</title>
<path fill="none" stroke="black" d="M191.39,-161.33C179.69,-151.07 164.72,-137.95 151.8,-126.63"/>
<polygon fill="black" stroke="black" points="154.22,-124.09 144.39,-120.13 149.6,-129.36 154.22,-124.09"/>
</g>
<!-- CO2 -->
<g id="node11" class="node">
<title>CO2</title>
<ellipse fill="#b0c4de" stroke="black" cx="205.36" cy="-100.7" rx="27" ry="18"/>
<text xml:space="preserve" text-anchor="middle" x="205.36" y="-96.83" font-family="Helvetica,sans-Serif" font-size="10.00">CO2</text>
</g>
<!-- LungParench&#45;&gt;CO2 -->
<g id="edge12" class="edge">
<title>LungParench&#45;&gt;CO2</title>
<path fill="none" stroke="black" d="M209.75,-158.16C209.09,-149.66 208.31,-139.67 207.6,-130.47"/>
<polygon fill="black" stroke="black" points="211.09,-130.24 206.83,-120.54 204.11,-130.78 211.09,-130.24"/>
</g>
<!-- ChestXray -->
<g id="node15" class="node">
<title>ChestXray</title>
<ellipse fill="#3cb371" stroke="black" cx="280.36" cy="-100.7" rx="29.88" ry="21.57"/>
<text xml:space="preserve" text-anchor="middle" x="280.36" y="-102.45" font-family="Helvetica,sans-Serif" font-size="10.00" fill="white">Chest</text>
<text xml:space="preserve" text-anchor="middle" x="280.36" y="-91.2" font-family="Helvetica,sans-Serif" font-size="10.00" fill="white">X&#45;ray</text>
</g>
<!-- LungParench&#45;&gt;ChestXray -->
<g id="edge13" class="edge">
<title>LungParench&#45;&gt;ChestXray</title>
<path fill="none" stroke="black" d="M228.06,-160.16C236.73,-150.48 247.45,-138.49 256.93,-127.9"/>
<polygon fill="black" stroke="black" points="259.45,-130.32 263.51,-120.53 254.24,-125.65 259.45,-130.32"/>
</g>
<!-- Grunting -->
<g id="node17" class="node">
<title>Grunting</title>
<ellipse fill="#b0c4de" stroke="black" cx="359.36" cy="-100.7" rx="31.21" ry="18"/>
<text xml:space="preserve" text-anchor="middle" x="359.36" y="-96.83" font-family="Helvetica,sans-Serif" font-size="10.00">Grunting</text>
</g>
<!-- LungParench&#45;&gt;Grunting -->
<g id="edge14" class="edge">
<title>LungParench&#45;&gt;Grunting</title>
<path fill="none" stroke="black" d="M238.16,-164.87C263.02,-151.91 300.07,-132.6 326.65,-118.75"/>
<polygon fill="black" stroke="black" points="328.04,-121.97 335.29,-114.24 324.81,-115.76 328.04,-121.97"/>
</g>
<!-- LungFlow&#45;&gt;ChestXray -->
<g id="edge15" class="edge">
<title>LungFlow&#45;&gt;ChestXray</title>
<path fill="none" stroke="black" d="M289.88,-158.16C288.61,-150.64 287.14,-141.95 285.75,-133.68"/>
<polygon fill="black" stroke="black" points="289.22,-133.2 284.11,-123.92 282.32,-134.36 289.22,-133.2"/>
</g>
<!-- Sick&#45;&gt;Grunting -->
<g id="edge21" class="edge">
<title>Sick&#45;&gt;Grunting</title>
<path fill="none" stroke="black" d="M364.03,-161.72C363.31,-152.49 362.41,-140.87 361.59,-130.32"/>
<polygon fill="black" stroke="black" points="365.09,-130.24 360.83,-120.55 358.11,-130.79 365.09,-130.24"/>
</g>
<!-- Sick&#45;&gt;Age -->
<g id="edge22" class="edge">
<title>Sick&#45;&gt;Age</title>
<path fill="none" stroke="black" d="M378.86,-163.96C388.93,-152.86 402.88,-137.49 414.4,-124.8"/>
<polygon fill="black" stroke="black" points="416.76,-127.4 420.89,-117.65 411.58,-122.7 416.76,-127.4"/>
</g>
<!-- LowerBodyO2 -->
<g id="node12" class="node">
<title>LowerBodyO2</title>
<ellipse fill="#3cb371" stroke="black" cx="38.36" cy="-21.57" rx="38.36" ry="21.57"/>
<text xml:space="preserve" text-anchor="middle" x="38.36" y="-23.32" font-family="Helvetica,sans-Serif" font-size="10.00" fill="white">Lower</text>
<text xml:space="preserve" text-anchor="middle" x="38.36" y="-12.07" font-family="Helvetica,sans-Serif" font-size="10.00" fill="white">Body O2</text>
</g>
<!-- HypDistrib&#45;&gt;LowerBodyO2 -->
<g id="edge16" class="edge">
<title>HypDistrib&#45;&gt;LowerBodyO2</title>
<path fill="none" stroke="black" d="M37.63,-79.03C37.72,-71.65 37.83,-63.16 37.94,-55.03"/>
<polygon fill="black" stroke="black" points="41.44,-55.12 38.07,-45.08 34.44,-55.03 41.44,-55.12"/>
</g>
<!-- HypoxiaInO2&#45;&gt;LowerBodyO2 -->
<g id="edge17" class="edge">
<title>HypoxiaInO2&#45;&gt;LowerBodyO2</title>
<path fill="none" stroke="black" d="M104.07,-82.2C92.93,-72.09 78.72,-59.19 66.36,-47.97"/>
<polygon fill="black" stroke="black" points="69.04,-45.68 59.28,-41.55 64.34,-50.86 69.04,-45.68"/>
</g>
<!-- RUQO2 -->
<g id="node13" class="node">
<title>RUQO2</title>
<ellipse fill="#3cb371" stroke="black" cx="122.36" cy="-21.57" rx="27.22" ry="21.57"/>
<text xml:space="preserve" text-anchor="middle" x="122.36" y="-23.32" font-family="Helvetica,sans-Serif" font-size="10.00" fill="white">RUQ</text>
<text xml:space="preserve" text-anchor="middle" x="122.36" y="-12.07" font-family="Helvetica,sans-Serif" font-size="10.00" fill="white">O2</text>
</g>
<!-- HypoxiaInO2&#45;&gt;RUQO2 -->
<g id="edge18" class="edge">
<title>HypoxiaInO2&#45;&gt;RUQO2</title>
<path fill="none" stroke="black" d="M123.09,-79.03C123,-71.65 122.89,-63.16 122.78,-55.03"/>
<polygon fill="black" stroke="black" points="126.28,-55.03 122.65,-45.08 119.28,-55.12 126.28,-55.03"/>
</g>
<!-- LVHreport -->
<g id="node19" class="node">
<title>LVHreport</title>
<ellipse fill="#3cb371" stroke="black" cx="512.36" cy="-100.7" rx="32" ry="21.57"/>
<text xml:space="preserve" text-anchor="middle" x="512.36" y="-102.45" font-family="Helvetica,sans-Serif" font-size="10.00" fill="white">LVH</text>
<text xml:space="preserve" text-anchor="middle" x="512.36" y="-91.2" font-family="Helvetica,sans-Serif" font-size="10.00" fill="white">Report</text>
</g>
<!-- LVH&#45;&gt;LVHreport -->
<g id="edge25" class="edge">
<title>LVH&#45;&gt;LVHreport</title>
<path fill="none" stroke="black" d="M500.69,-161.72C502.3,-153.45 504.28,-143.25 506.15,-133.63"/>
<polygon fill="black" stroke="black" points="509.59,-134.31 508.06,-123.82 502.71,-132.97 509.59,-134.31"/>
</g>
<!-- CO2Report -->
<g id="node14" class="node">
<title>CO2Report</title>
<ellipse fill="#3cb371" stroke="black" cx="199.36" cy="-21.57" rx="32" ry="21.57"/>
<text xml:space="preserve" text-anchor="middle" x="199.36" y="-23.32" font-family="Helvetica,sans-Serif" font-size="10.00" fill="white">CO2</text>
<text xml:space="preserve" text-anchor="middle" x="199.36" y="-12.07" font-family="Helvetica,sans-Serif" font-size="10.00" fill="white">Report</text>
</g>
<!-- CO2&#45;&gt;CO2Report -->
<g id="edge19" class="edge">
<title>CO2&#45;&gt;CO2Report</title>
<path fill="none" stroke="black" d="M204.03,-82.58C203.39,-74.38 202.6,-64.28 201.86,-54.71"/>
<polygon fill="black" stroke="black" points="205.37,-54.69 201.11,-44.99 198.39,-55.24 205.37,-54.69"/>
</g>
<!-- XrayReport -->
<g id="node16" class="node">
<title>XrayReport</title>
<ellipse fill="#3cb371" stroke="black" cx="281.36" cy="-21.57" rx="32" ry="21.57"/>
<text xml:space="preserve" text-anchor="middle" x="281.36" y="-23.32" font-family="Helvetica,sans-Serif" font-size="10.00" fill="white">X&#45;ray</text>
<text xml:space="preserve" text-anchor="middle" x="281.36" y="-12.07" font-family="Helvetica,sans-Serif" font-size="10.00" fill="white">Report</text>
</g>
<!-- ChestXray&#45;&gt;XrayReport -->
<g id="edge20" class="edge">
<title>ChestXray&#45;&gt;XrayReport</title>
<path fill="none" stroke="black" d="M280.63,-79.03C280.72,-71.65 280.83,-63.16 280.94,-55.03"/>
<polygon fill="black" stroke="black" points="284.44,-55.12 281.07,-45.08 277.44,-55.03 284.44,-55.12"/>
</g>
<!-- GruntingReport -->
<g id="node18" class="node">
<title>GruntingReport</title>
<ellipse fill="#3cb371" stroke="black" cx="368.36" cy="-21.57" rx="37.3" ry="21.57"/>
<text xml:space="preserve" text-anchor="middle" x="368.36" y="-23.32" font-family="Helvetica,sans-Serif" font-size="10.00" fill="white">Grunting</text>
<text xml:space="preserve" text-anchor="middle" x="368.36" y="-12.07" font-family="Helvetica,sans-Serif" font-size="10.00" fill="white">Report</text>
</g>
<!-- Grunting&#45;&gt;GruntingReport -->
<g id="edge24" class="edge">
<title>Grunting&#45;&gt;GruntingReport</title>
<path fill="none" stroke="black" d="M361.36,-82.58C362.32,-74.38 363.49,-64.28 364.61,-54.71"/>
<polygon fill="black" stroke="black" points="368.06,-55.33 365.74,-44.99 361.11,-54.51 368.06,-55.33"/>
</g>
</g>
</svg>
